<svg xmlns="http://www.w3.org/2000/svg" width="22" height="22" fill="none"><circle cx="11" cy="11" r="9.167" fill="#fff" opacity=".1"/><g fill="#fff" opacity=".8"><path d="M11 6.491c1.469 0 1.643.006 2.223.032.536.025.827.114 1.02.19.258.1.44.218.633.41.193.193.312.377.412.633.075.194.165.485.189 1.022.026.58.032.753.032 2.222 0 1.469-.006 1.643-.032 2.222-.024.537-.114.828-.19 1.022-.1.256-.218.44-.41.632a1.714 1.714 0 0 1-.633.412c-.194.075-.485.165-1.021.189-.58.026-.754.032-2.223.032-1.469 0-1.643-.006-2.222-.032-.537-.024-.828-.114-1.022-.19a1.71 1.71 0 0 1-.632-.41 1.714 1.714 0 0 1-.412-.633c-.075-.194-.164-.485-.189-1.022-.026-.58-.032-.753-.032-2.222 0-1.469.006-1.643.032-2.222.025-.537.114-.828.19-1.022.1-.256.218-.44.41-.632.193-.193.377-.312.633-.412.194-.075.485-.164 1.022-.189.58-.026.753-.032 2.222-.032zm0-.991c-1.494 0-1.681.006-2.268.033-.585.027-.985.12-1.335.256-.361.14-.668.328-.974.634a2.692 2.692 0 0 0-.634.974c-.136.35-.23.75-.256 1.335C5.506 9.32 5.5 9.506 5.5 11c0 1.494.006 1.681.033 2.268.027.585.12.985.256 1.335.14.361.328.668.634.974.306.306.613.494.974.634.35.136.75.23 1.335.256.587.027.774.033 2.268.033 1.494 0 1.681-.006 2.268-.033.585-.027.985-.12 1.335-.256.361-.14.668-.328.974-.634.306-.306.494-.613.634-.974.136-.35.23-.75.256-1.335.027-.587.033-.774.033-2.268 0-1.494-.006-1.681-.033-2.268-.027-.585-.12-.985-.256-1.335a2.692 2.692 0 0 0-.634-.974 2.692 2.692 0 0 0-.974-.634c-.35-.136-.75-.23-1.335-.256C12.68 5.506 12.494 5.5 11 5.5z"/><path d="M11.002 8.178a2.824 2.824 0 1 0 0 5.648 2.824 2.824 0 0 0 0-5.648zm0 4.658a1.833 1.833 0 1 1 0-3.666 1.833 1.833 0 0 1 0 3.666zm3.595-4.771a.66.66 0 1 1-1.32 0 .66.66 0 0 1 1.32 0z"/></g></svg>