<svg xmlns="http://www.w3.org/2000/svg" width="22" height="22" fill="none"><circle cx="10.999" cy="11" r="9.167" fill="#fff" opacity=".1"/><path fill="#fff" fill-rule="evenodd" d="M17.05 7.658c-.404.18-.84.3-1.296.355.466-.279.824-.721.992-1.248-.435.259-.92.446-1.433.548a2.257 2.257 0 0 0-3.845 2.058 6.404 6.404 0 0 1-4.652-2.358 2.256 2.256 0 0 0 .699 3.013 2.257 2.257 0 0 1-1.023-.282v.028a2.26 2.26 0 0 0 1.81 2.213 2.235 2.235 0 0 1-1.019.039 2.258 2.258 0 0 0 2.108 1.567 4.527 4.527 0 0 1-3.341.934 6.392 6.392 0 0 0 3.46 1.014c4.15 0 6.42-3.438 6.42-6.42 0-.098-.002-.196-.007-.292a4.588 4.588 0 0 0 1.127-1.169z" clip-rule="evenodd" opacity=".8"/></svg>